<?xml version="1.0" encoding="utf-8"?>
<!-- Generator: Adobe Illustrator 27.5.0, SVG Export Plug-In . SVG Version: 6.00 Build 0)  -->
<svg version="1.1" id="_x31_" xmlns="http://www.w3.org/2000/svg" xmlns:xlink="http://www.w3.org/1999/xlink" x="0px" y="0px"
	 viewBox="0 0 450 450" style="enable-background:new 0 0 450 450;" xml:space="preserve">
<g>
	<polygon style="fill:#895262;" points="134.774,287.907 115.436,287.907 127.775,311.85 147.114,311.85 	"/>
	
		<ellipse transform="matrix(0.9732 -0.2298 0.2298 0.9732 -12.6523 68.6236)" style="fill:#75BFB1;" cx="288.363" cy="88.645" rx="38.645" ry="38.645"/>
	<path style="fill:#75BFB1;" d="M290.616,143.072c-24.96-10.574-10.409-33.376-10.409-33.376l11.986,2.448
		C283.488,119.15,279.973,135.57,290.616,143.072z"/>
	<g>
		<path style="fill:#FFFFFF;" d="M299.727,77.757c0,4.747-3.798,9.305-5.634,11.141c-1.772,1.709-2.532,4.241-2.532,6.836
			c0,1.583-0.127,2.659-0.443,3.228c-0.19,0.697-0.76,1.33-1.203,1.52c-0.887,0.253-1.583,0.506-2.28,0.506
			c-0.633,0-1.203-0.19-1.772-0.696c-0.443-0.19-1.33-0.633-1.33-1.076c-0.127-0.507-0.19-1.14-0.19-1.773
			c0-1.393,0.19-3.101,0.19-4.938c0-3.544,5.444-8.798,6.583-11.267c0.759-1.393,1.076-2.595,1.076-3.671
			c0-1.203-0.38-2.152-1.203-2.975c-1.393-1.14-2.595-1.709-3.988-1.709c-0.57,0-1.203,0.126-1.836,0.316
			c-1.076,0.507-2.531,1.71-3.608,2.658c-0.569,0.38-1.899-1.266-3.481-2.658c-0.19-0.19-1.583-1.773-0.886-2.089
			c1.203-1.33,2.595-2.532,3.671-3.228c3.418-2.215,5.064-2.595,10.571-2.595C295.676,65.287,299.727,69.971,299.727,77.757z
			 M291.625,107.507c0,0.254,0,0.444-0.063,0.634c0,1.266-1.962,3.861-4.431,3.861c-2.089,0-3.924-2.216-3.924-4.748
			c0-0.316,0-0.57,0.063-0.886c0.506-2.658,2.721-3.101,4.241-3.101C290.549,103.267,291.625,105.861,291.625,107.507z"/>
	</g>
	<polygon style="fill:#5E5A4F;" points="368.605,147.305 363.011,155.673 372.404,152.302 	"/>
	<path style="fill:#F7EFD5;" d="M230.044,225.912c-23.281-14-25.712-43.907-39.679-61.844l-5.632,68.331
		c3.776,12.598,24.544,27.244,34.692,24.894C229.572,254.941,241.33,232.698,230.044,225.912z"/>
	<path style="fill:#EDE3C5;" d="M230.206,237.025c-9.584,6.138-35.145-29.665-42.021-43.417l-3.453,38.79
		c3.776,12.597,24.544,27.244,34.692,24.894c7.992-1.851,17.009-16.096,14.942-25.335
		C233.386,234.147,232.003,235.874,230.206,237.025z"/>
	<path style="fill:#555B60;" d="M221.002,219.037c0,0-15.124,1.042-22.052,14.249l2.401,2.178l-3.999,0.642
		c0,0-2.635,13.453,7.542,21.229c0,0,10.783,2.159,13.376,0.656l12.618-29.232C225.898,222.292,221.002,219.037,221.002,219.037z"/>
	<g>
		<path style="fill:#E79B69;" d="M279.014,244.123c1.895,1.814,2.905,5.382,2.139,8.862c-0.765,3.479-4.009,4.772-5.247,4.758
			c-1.238-0.014-4.557-2.308-2.26-5.095c2.297-2.787,0.298-4.549,0.298-4.549L279.014,244.123z"/>
		<path style="fill:#E79B69;" d="M279.957,243.386c-3.101-5.876-16.853-5.588-22.814-3.799c-5.961,1.789-3.966,16.706-0.996,19.112
			c2.97,2.406,7.204,3.259,10.286,0.758c3.082-2.501,6.21,0.92,7.623,0.379C277.588,258.482,281.918,247.103,279.957,243.386z"/>
		<path style="fill:#E79B69;" d="M278.149,252.422c1.145,2.363,0.837,6.038-1.109,8.993c-1.946,2.956-5.454,2.994-6.615,2.538
			c-1.161-0.456-3.476-3.775-0.332-5.54c3.144-1.765,1.883-4.117,1.883-4.117L278.149,252.422z"/>
	</g>
	<path style="fill:#EDB984;" d="M215.257,257.618c12.54,2.855,42.236,2.188,43.884,1.301c1.648-0.887,4.555-13.731,4.006-15.031
		c-0.549-1.301-34.002-19.855-37.664-21.036c-3.662-1.181-15.535,8.319-17.915,13.979
		C205.186,242.492,210.029,256.428,215.257,257.618z"/>
	<path style="fill:#E79B69;" d="M264.374,241.678c-21.126-4.672-48.293-2.352-48.07-14.598c-3.816,2.961-7.519,6.855-8.737,9.751
		c-2.38,5.66,2.462,19.597,7.69,20.787c12.54,2.855,42.236,2.188,43.884,1.301c0.172-0.093,4.021-0.514,4.251-0.911
		C261.041,257.728,266.789,242.212,264.374,241.678z"/>
	<path style="fill:#EDB984;" d="M269.9,254.079c1.742-3.732,4.298-10.191,2.702-12.524c-1.596-2.333-10.683-6.139-14.243-5.034
		c-3.561,1.105-9.454,5.894-5.525,9.577c3.929,3.684,10.068,0.982,11.787,0c1.719-0.982-2.333,4.052-0.859,6.016
		C265.234,254.079,269.019,255.966,269.9,254.079z"/>
	<polygon style="fill:#66464E;" points="151.65,337.748 152.279,381.214 156.408,381.214 157.037,337.748 	"/>
	<polygon style="fill:#93586C;" points="144.95,386.371 163.736,386.371 157.872,372.557 150.814,372.557 	"/>
	<polygon style="fill:#93586C;" points="163.736,324.487 144.95,324.487 148.529,343.642 160.158,343.642 	"/>
	<path style="fill:#93586C;" d="M183.233,391.712c-4.389-4.844-12.935-8.656-28.889-8.656s-24.5,3.812-28.89,8.656H183.233z"/>
	<path style="fill:#895262;" d="M125.454,320.619c4.389,4.844,12.935,8.656,28.89,8.656s24.5-3.812,28.889-8.656H125.454z"/>
	<path style="fill:#66464E;" d="M160.145,395.488c0-2.492-2.02-4.512-4.512-4.512c-2.492,0-4.512,2.02-4.512,4.512
		c0,2.492,2.02,4.512,4.512,4.512C158.124,400,160.145,397.98,160.145,395.488z"/>
	<path style="fill:#66464E;" d="M129.295,395.488c0-2.492-2.02-4.512-4.512-4.512c-2.492,0-4.512,2.02-4.512,4.512
		c0,2.492,2.02,4.512,4.512,4.512C127.275,400,129.295,397.98,129.295,395.488z"/>
	<path style="fill:#66464E;" d="M189.889,395.488c0-2.492-2.02-4.512-4.512-4.512s-4.512,2.02-4.512,4.512
		c0,2.492,2.02,4.512,4.512,4.512S189.889,397.98,189.889,395.488z"/>
	<path style="fill:#D14365;" d="M193.205,315.836c0-4.174-6.3-7.557-38.861-7.557c-32.562,0-38.862,3.383-38.862,7.557
		c0,4.174,6.3,7.557,38.862,7.557C186.905,323.393,193.205,320.01,193.205,315.836z"/>
	<path style="fill:#E25D79;" d="M115.481,315.836c0,0.394,0.057,0.782,0.186,1.16c2.583,0.735,5.424,1.401,8.435,1.947
		c12.561,2.278,23.192,1.65,23.746-1.403c0.466-2.572-6.382-6.04-16.061-8.433C118.612,310.358,115.481,312.901,115.481,315.836z"/>
	<path style="fill:#D14365;" d="M103.326,181.565c-16.478,0-28.202,11.482-26.185,25.645l8.904,62.532
		c2.017,14.163,17.01,25.645,33.489,25.645s28.202-11.482,26.185-25.645l-8.904-62.532
		C134.798,193.047,119.804,181.565,103.326,181.565z"/>
	<path style="fill:#D14365;" d="M109.588,181.565c-16.478,0-28.202,11.482-26.185,25.645l8.904,62.532
		c2.017,14.163,17.01,25.645,33.489,25.645s28.202-11.482,26.185-25.645l-8.904-62.532
		C141.059,193.047,126.066,181.565,109.588,181.565z"/>
	<path style="fill:#E25D79;" d="M109.588,181.565c-16.478,0-28.202,11.482-26.185,25.645l4.882,34.282
		c0.816,0.114,1.638,0.186,2.471,0.186C104.631,240.205,104.631,197.475,109.588,181.565z"/>
	<path style="fill:#F2E9D1;" d="M365.004,145.527h-98.828c-2.928,0-5.852,2.263-6.531,5.054l-19.502,80.139
		c-0.679,2.791,1.143,5.054,4.071,5.054h98.829c2.928,0,5.852-2.263,6.531-5.054l19.502-80.139
		C369.755,147.79,367.932,145.527,365.004,145.527z"/>
	<path style="fill:#5E5A4F;" d="M365.004,145.527h-98.828c-2.928,0-5.852,2.263-6.531,5.054l-15.356,63.102l9.281,8.656
		l100.15-8.656l16.011-62.604C370.409,148.288,367.932,145.527,365.004,145.527z"/>
	<polygon style="fill:#F2E9D1;" points="240.936,234.418 245.225,239.707 249.609,230.904 	"/>
	<path style="fill:#D3C7A9;" d="M368.88,150.623h-98.641c-2.922,0-5.841,2.263-6.518,5.054l-19.465,80.14
		c-0.678,2.791,1.141,5.054,4.064,5.054h98.641c2.922,0,5.841-2.263,6.519-5.054l19.465-80.14
		C373.621,152.886,371.802,150.623,368.88,150.623z"/>
	<polygon style="fill:#DDD3B6;" points="252.391,240.87 315.085,240.87 353.277,150.623 295.265,150.623 	"/>
	<rect x="282.715" y="255.236" style="fill:#D3C7A9;" width="34.38" height="6.367"/>
	<polygon style="fill:#D3C7A9;" points="294.444,240.87 306.821,240.87 310.247,223.054 298.795,223.054 	"/>
	<polygon style="fill:#D3C7A9;" points="318.323,222.821 298.432,222.821 302.606,261.744 325.444,261.744 	"/>
	<polygon style="fill:#DDD3B6;" points="321.392,222.821 301.501,222.821 305.676,261.744 328.514,261.744 	"/>
	<path style="fill:#555B60;" d="M181.049,314.173l36.002,2.132c0,0,27.711,77.802,29.577,78.165
		c1.866,0.363-2.756-103.582-6.642-109.029c-3.886-5.446-55.052-15.829-62.621-15.103c-3.534,0.339-17.764,7.128-23.372,17.412
		C149.042,296.828,164.983,314.173,181.049,314.173z"/>
	<path style="fill:#454B4F;" d="M211.454,281.461c-11.103-1.931-19.819-4.775-8.57-7.418c-11.687-2.385-22.372-4.006-25.518-3.704
		c-3.534,0.339-17.764,7.128-23.372,17.412c-4.951,9.077,10.99,26.423,27.056,26.423l36.002,2.131c0,0,27.711,77.802,29.577,78.165
		c1.476,0.287-1.107-64.65-4.173-94.527C231.1,298.896,222.75,283.425,211.454,281.461z"/>
	<path style="fill:#555B60;" d="M154.896,314.173l32.065,1.898c0,0,16.901,78.035,18.768,78.398
		c1.866,0.363,11.989-103.582,8.104-109.029c-3.886-5.446-55.052-15.829-62.621-15.103c-3.534,0.339-17.764,7.128-23.372,17.412
		C122.889,296.828,138.83,314.173,154.896,314.173z"/>
	<path style="fill:#454B4F;" d="M191.808,305.526c-23.599,0-42.729-7.256-42.729-16.208c0-6.982,11.64-12.932,27.961-15.213
		c-11.807-2.42-22.653-4.072-25.827-3.768c-3.534,0.339-17.764,7.128-23.372,17.412c-4.951,9.077,10.99,26.423,27.056,26.423
		l32.065,1.898c0,0,16.901,78.035,18.768,78.398c1.427,0.278,7.678-60.394,8.808-91.429
		C207.952,304.613,200.164,305.526,191.808,305.526z"/>
	<path style="fill:#F7EFD5;" d="M126.778,295.51c-14.473-23.995-24.813-101.965,8.349-130.152
		c29.468-25.048,57.328-9.126,62.82,13.332c2.164,8.85-14,52.269-4.669,93.525C149.861,267.515,126.778,295.51,126.778,295.51z"/>
	<path style="fill:#EDE3C5;" d="M140.484,218.472c0-27.918,5.635-51.308,19.658-65.215c-7.971,1.137-16.512,4.873-25.015,12.1
		c-33.162,28.188-24.803,106.087-8.349,130.152c0,0,9.008-10.924,26.353-17.978C143.097,263.183,140.484,241.428,140.484,218.472z"
		/>
	<path style="fill:#EDE3C5;" d="M135.127,165.357c-1.535,1.305-2.946,2.749-4.299,4.256c8.013,2.805,18.897,4.532,30.897,4.532
		c12.706,0,24.161-1.936,32.28-5.038C184.017,152.369,160.157,144.082,135.127,165.357z"/>
	<polygon style="fill:#745E84;" points="174.68,166.104 171.978,163.525 174.372,159.473 177.184,163.407 	"/>
	<path style="fill:#745E84;" d="M175.665,163.747l-1.477-0.16c3.082,14.422-11.577,59.45-3.685,83.165l6.939,5.608l3.52-7.371
		C173.135,224.158,180.051,187.142,175.665,163.747z"/>
	<path style="fill:#EDE3C5;" d="M184.526,220.703c-20.114-17.958-18.17-50.296-32.406-57.55
		c-11.567-5.894-30.546,13.158-14.962,51.065c4.787,11.643,29.037,40.902,38.499,39.44
		C185.12,252.196,193.92,229.091,184.526,220.703z"/>
	<path style="fill:#F7EFD5;" d="M187.887,223.331c-26.815-19.398-20.015-42.286-36.107-49.798
		c-13.075-6.104-35.906,4.578-16.822,43.834c5.862,12.058,34.101,42.359,44.489,40.845
		C189.835,256.698,199.145,231.475,187.887,223.331z"/>
	<path style="fill:#EDE3C5;" d="M191.492,238.961c-9.464,5.953-28.021-6.527-41.448-27.873
		c-12.039-19.141-15.858-38.903-9.698-47.076c-11.435,3.504-21.748,22.721-6.574,53.934c5.862,12.058,35.286,41.781,45.674,40.267
		c6.415-0.935,12.411-10.91,13.414-20.322C192.437,238.286,191.986,238.65,191.492,238.961z"/>
	<path style="fill:#555B60;" d="M182.354,218.349c0,0-14.98,2.333-20.751,16.085l2.579,1.965l-3.929,0.982
		c0,0-1.473,13.629,9.332,20.505c0,0,10.928,1.228,13.383-0.491l10.068-30.205C187.511,221.173,182.354,218.349,182.354,218.349z"/>
	<path style="fill:#F2E9D1;" d="M249.272,258.254c0-3.696-6.814-10.437-12.646-10.437c-5.832,0-10.56,2.996-10.56,6.692
		c0,3.696,4.728,6.692,10.56,6.692C242.458,261.201,249.272,261.95,249.272,258.254z"/>
	<path style="fill:#EDB984;" d="M176.027,257.618c12.54,2.855,50.535,2.334,52.183,1.447c1.648-0.887,2.197-17.452,1.648-18.752
		c-0.549-1.3-39.202-16.462-42.864-17.643c-3.662-1.181-16.276,8.5-18.657,14.161C165.957,242.492,170.799,256.428,176.027,257.618z
		"/>
	<g>
		<path style="fill:#EDB984;" d="M243.524,238.529c2.253,1.345,4.034,4.598,4.065,8.16c0.031,3.562-2.841,5.547-4.051,5.81
			c-1.21,0.263-4.958-1.231-3.341-4.461c1.617-3.23-0.726-4.5-0.726-4.5L243.524,238.529z"/>
		<path style="fill:#EDB984;" d="M244.278,237.599c-4.335-5.035-17.676-1.682-23.086,1.394c-5.41,3.076-0.133,17.169,3.3,18.851
			c3.432,1.682,7.75,1.567,10.195-1.559c2.445-3.126,6.259-0.491,7.515-1.334C245.342,252.843,247.021,240.785,244.278,237.599z"/>
		<path style="fill:#EDB984;" d="M244.535,246.811c1.644,2.048,2.165,5.698,0.929,9.014c-1.236,3.316-4.647,4.137-5.881,3.952
			c-1.233-0.185-4.232-2.903-1.561-5.326c2.67-2.423,0.916-4.433,0.916-4.433L244.535,246.811z"/>
	</g>
	<path style="fill:#E79B69;" d="M212.619,254.68c-19.494-6.197-33.003-19.238-31.694-30.03c-4.975,2.956-11.014,8.439-12.588,12.181
		c-2.38,5.66,2.462,19.597,7.69,20.787c12.54,2.855,50.535,2.334,52.182,1.447c0.233-0.125,0.443-0.573,0.633-1.238
		C223.705,257.482,218.202,256.455,212.619,254.68z"/>
	<path style="fill:#F9EFE1;" d="M262.504,400h-19.208c0,0-0.545-6.548,2.703-8.076C249.248,390.396,262.504,400,262.504,400z"/>
	<path style="fill:#F9EFE1;" d="M222.169,400h-19.207c0,0-0.546-6.548,2.703-8.076S222.169,400,222.169,400z"/>
	<polygon style="fill:#EADDB9;" points="353.071,262.235 252.51,262.235 252.51,400 344.967,400 	"/>
	<polygon style="fill:#DDD3B6;" points="357,262.235 256.439,262.235 256.439,400 348.896,400 	"/>
	<rect x="185.469" y="259.288" style="fill:#EADDB9;" width="171.286" height="4.788"/>
	
		<rect x="152.317" y="328.171" transform="matrix(-1.836970e-16 1 -1 -1.836970e-16 552.3171 108.8128)" style="fill:#EADDB9;" width="138.87" height="4.789"/>
	<rect x="259.463" y="259.288" style="fill:#D3C7A9;" width="101.544" height="4.788"/>
	<path style="fill:#99424A;" d="M193.906,101.594c1.174-1.448,1.095-3.662-0.185-4.889c-1.286-1.232-3.607-1.299-5.115-0.147
		c0.259-3.108,0.468-6.478-1.194-9.112c-1.256-1.991-3.459-3.28-5.816-3.852c-4.275-1.039-8.948,0.143-12.827,2.364
		c-3.852,2.205-7.008,5.346-9.949,8.529c-1.206,1.304-2.436,2.732-2.658,4.446c-1.216-0.8-3.001-0.054-3.754,1.162
		c-0.75,1.211-0.755,2.693-0.736,4.089c0.049,3.68,0.254,7.655,2.803,10.335c0.191,0.2,0.4,0.404,0.463,0.665
		c0.066,0.275-0.043,0.557-0.137,0.824c-1.056,2.981-0.102,6.737,2.865,8.123c-2.45,5.549-0.879,12.227,3.7,16.18l26.946-15.625
		c2.149-1.074,4.106-2.523,5.731-4.251c2.53-2.689,4.266-6.14,4.407-9.673C198.594,107.187,196.977,103.575,193.906,101.594z"/>
	<path style="fill:#84353F;" d="M188.462,119.568c-13.579,0-24.588-9.813-24.588-21.917c0-3.796,1.084-7.365,2.989-10.479
		c-3.01,2.072-5.603,4.675-8.043,7.315c-1.205,1.304-2.436,2.732-2.658,4.446c-1.216-0.8-3.001-0.054-3.754,1.162
		c-0.75,1.211-0.755,2.693-0.736,4.089c0.049,3.68,0.254,7.655,2.803,10.335c0.191,0.2,0.4,0.404,0.463,0.665
		c0.066,0.275-0.043,0.557-0.137,0.824c-1.056,2.981-0.102,6.736,2.865,8.123c-2.45,5.549-0.879,12.227,3.7,16.18l26.946-15.625
		c2.149-1.074,4.105-2.523,5.73-4.251c0.531-0.564,1.016-1.168,1.47-1.793C193.279,119.238,190.915,119.568,188.462,119.568z"/>
	<polygon style="fill:#D27558;" points="155.264,154.859 163.198,123.975 181.049,135.152 179.351,155.689 174.495,160.026 	"/>
	<path style="fill:#EDB984;" d="M167.051,101.386c-2.39,2.39-4.29,42.485-2.44,45.256c1.79,2.682,17.174,6.314,21.997,5.429
		c0.88-3.45,7.535-39.095,3.773-43.932C186.619,103.302,169.022,99.415,167.051,101.386z"/>
	<path style="fill:#99424A;" d="M175.614,97.013l-10.589-5.998c-6,15.722-1.518,32.232-0.754,36.705
		c1.877,0.005,3.753,0.01,5.63,0.015c0.2,0,0.409-0.001,0.589-0.09c0.216-0.108,0.353-0.324,0.478-0.531
		c2.337-3.862,4.414-7.88,6.214-12.02c1.317-3.031,2.503-6.21,2.528-9.514C179.735,102.274,178.399,98.79,175.614,97.013z"/>
	<polygon style="fill:#84353F;" points="159.198,137.938 163.245,131.346 166.315,122.751 160.298,118.944 	"/>
	<polygon style="fill:#F4EBD7;" points="180.358,166.994 173.756,159.535 179.898,154.286 180.472,156.035 	"/>
	<polygon style="fill:#F4EBD7;" points="175.118,159.447 167.742,169.726 153.878,154.657 155.218,152.167 	"/>
	<g>
		<path style="fill:#99424A;" d="M187.513,148.161c1.594-5.866,0.205-12.126-3.992-13.383c-4.13-1.236-10.116,2.956-11.6,8.664
			c-1.473,5.663,2.265,7.173,6.299,8.53C182.318,153.35,185.932,153.98,187.513,148.161z"/>
		<path style="fill:#EDB984;" d="M185.514,146.515c1.001-3.684,0.129-7.614-2.507-8.403c-2.594-0.776-6.352,1.856-7.284,5.44
			c-0.925,3.556,1.422,4.504,3.955,5.356C182.253,149.773,184.521,150.169,185.514,146.515z"/>
		<g>
			<path style="fill:#5A4949;" d="M181.728,124.383c0.446-1.723,0.084-3.335-0.807-3.602c-0.891-0.267-1.975,0.914-2.42,2.637
				c-0.445,1.723-0.084,3.335,0.807,3.602C180.199,127.287,181.283,126.106,181.728,124.383z"/>
			<path style="fill:#99424A;" d="M182.379,115.741l-6.044,0.269c-0.508,0.022-0.909,0.469-0.897,0.997l0.048,1.993
				c0.013,0.529,0.435,0.939,0.944,0.917l6.044-0.269c0.508-0.022,0.909-0.469,0.897-0.997l-0.048-1.993
				C183.31,116.128,182.887,115.718,182.379,115.741z"/>
			<path style="fill:#5A4949;" d="M190.587,126.847c0.324-1.603-0.008-3.058-0.742-3.249c-0.734-0.191-1.592,0.954-1.916,2.558
				c-0.324,1.604,0.008,3.059,0.742,3.25C189.405,129.596,190.263,128.451,190.587,126.847z"/>
			<path style="fill:#99424A;" d="M193.688,120.261l-5.314-2.346c-0.447-0.197-0.963,0.048-1.153,0.547l-0.717,1.884
				c-0.19,0.5,0.018,1.065,0.465,1.262l5.314,2.346c0.447,0.197,0.963-0.048,1.153-0.547l0.717-1.884
				C194.343,121.023,194.134,120.458,193.688,120.261z"/>
			<path style="fill:#3E2D34;" d="M186.01,139.213l-6.987-2.23c0,0-0.518,2.337,2.537,4.002
				C184.616,142.652,186.01,139.213,186.01,139.213z"/>
			<path style="fill:#F9EDDB;" d="M184.439,140.488c0.59-0.526,0.872-1.22,0.872-1.22l-5.641-1.8c0,0-0.143,0.669,0.256,1.492
				L184.439,140.488z"/>
			<polygon style="fill:#FCECDE;" points="176.836,122.424 184.466,124.489 183.096,129.777 175.466,127.712 			"/>
			<polygon style="fill:#FCECDE;" points="187.67,125.785 194.771,127.916 193.444,133.199 186.343,131.068 			"/>
			<path style="fill:#D27558;" d="M184.919,126.425c1.44,4.489,1.87,7.276,0.412,8.055c-0.91,0.487-2.189,0.113-3.195-0.342
				l-0.027,0.078c0,0,3.077,2.067,4.66,1.379C188.335,134.915,187.275,131.699,184.919,126.425z"/>
			<polygon style="fill:#EDB984;" points="188.353,126.664 193.773,128.29 192.77,132.32 187.35,130.694 			"/>
			<polygon style="fill:#EDB984;" points="177.469,123.47 183.571,125.203 182.523,129.226 176.421,127.493 			"/>
			<polygon style="fill:#FCECDE;" points="184.202,125.089 188.064,126.224 187.589,127.403 183.728,126.268 			"/>
			<polygon style="fill:#FCECDE;" points="161.767,118.157 177.285,122.785 176.81,123.963 161.292,119.336 			"/>
			<path style="fill:#5A4949;" d="M183.113,125.073c-0.531,1.236-1.389,2.005-2.122,1.786c-0.725-0.217-1.091-1.329-0.965-2.662
				L183.113,125.073z"/>
			<path style="fill:#5A4949;" d="M192.588,127.935c-0.409,1.106-1.07,1.814-1.657,1.661c-0.603-0.157-0.928-1.169-0.847-2.412
				L192.588,127.935z"/>
		</g>
	</g>
	<path style="fill:#EDB984;" d="M168.992,122.749c-0.665-3.525-2.932-6.057-5.064-5.655c-2.132,0.402-3.322,3.586-2.657,7.111
		c0.665,3.525,2.932,6.057,5.064,5.655C168.467,129.458,169.656,126.274,168.992,122.749z"/>
	<path style="fill:#D27558;" d="M167.376,123.197c-0.81-2.289-2.543-3.764-3.872-3.295c-1.328,0.47-1.749,2.706-0.939,4.996
		c0.81,2.289,2.543,3.764,3.872,3.294C167.766,127.723,168.186,125.487,167.376,123.197z"/>
	<path style="fill:#EDB984;" d="M167.142,126.067c-0.553-1.562-1.735-2.568-2.642-2.247c-0.906,0.321-1.193,1.846-0.641,3.408
		c0.553,1.562,1.735,2.568,2.642,2.247C167.408,129.155,167.695,127.629,167.142,126.067z"/>
</g>
</svg>
